<?xml version="1.0" standalone="no"?><!DOCTYPE svg PUBLIC "-//W3C//DTD SVG 1.1//EN" "http://www.w3.org/Graphics/SVG/1.1/DTD/svg11.dtd"><svg t="1683859855698" class="icon" viewBox="0 0 1024 1024" version="1.1" xmlns="http://www.w3.org/2000/svg" p-id="5498" xmlns:xlink="http://www.w3.org/1999/xlink" width="32" height="32"><path d="M67.4 71.23m315.06 0l269.88 0q315.06 0 315.06 315.06l0 269.88q0 315.06-315.06 315.06l-269.88 0q-315.06 0-315.06-315.06l0-269.88q0-315.06 315.06-315.06Z" fill="#B2CCDF" p-id="5499"></path><path d="M910.08 423a11.28 11.28 0 0 0-7.95-3.29H667.81c-4-131.11-111.55-236.17-243.64-236.17-134.63 0-243.76 109.14-243.76 243.77 0 127.14 97.37 231.54 221.59 242.69v208.92a11.28 11.28 0 0 0 3.29 8 12.38 12.38 0 0 0 1 0.9 12.21 12.21 0 0 0 1.59 1.06h0.06a11.28 11.28 0 0 0 5.2 1.33h489a11.41 11.41 0 0 0 1.76-0.17 11.19 11.19 0 0 0 3.42-1.18A11.72 11.72 0 0 0 910 887l0.08-0.08a0.27 0.27 0 0 0 0.07-0.08 10.42 10.42 0 0 0 1.09-1.3 6 6 0 0 0 0.36-0.52 11.15 11.15 0 0 0 1.8-6.08V431a11.16 11.16 0 0 0-1.8-6.09 11.62 11.62 0 0 0-1.52-1.91z" fill="#606060" p-id="5500"></path><path d="M859.4 778.72V386a11.34 11.34 0 0 0-11.31-11.31H589.85c0 126.46-102.52 229-229 229q-6.45 0-12.82-0.37v175.4zM348 783.73v50.19a11.34 11.34 0 0 0 11.31 11.31h488.78a11.34 11.34 0 0 0 11.31-11.31v-50.19z" fill="#F8E9AC" p-id="5501"></path><path d="M848.09 367.18H589.85a7.61 7.61 0 0 0-7.5 7.5 221.48 221.48 0 0 1-151.48 210.21A225.89 225.89 0 0 1 348 595.8c-4.05-0.21-7.5 3.61-7.5 7.5V827c0 6.27-0.38 12.34 3.52 17.81 7 9.85 19.59 8 30.11 8H844.3c4.35 0 8.48 0 12.54-2.18 7.4-4 10.06-11.38 10.06-19.23v-350c0-31.28 0.32-62.59 0-93.87-0.11-11.14-7.35-19.69-18.81-20.35-9.64-0.56-9.61 14.44 0 15 4.4 0.25 3.81 4.46 3.81 7.53V831.4c0 3 0 5.77-3.91 6.33-6.79 0.95-14.4 0-21.23 0H362.58c-3.14 0-6.44 0.39-7-3.82-0.47-3.26 0-6.94 0-10.23V603.3l-7.5 7.5c51.26 2.65 102.83-11.29 145.32-40.23a239.29 239.29 0 0 0 89.06-113.1 235.42 235.42 0 0 0 14.93-82.79l-7.5 7.5h258.2c9.65 0 9.67-15 0-15z" fill="#231815" p-id="5502"></path><path d="M357.94 793.61h487.48c9.65 0 9.67-15 0-15H357.94c-9.65 0-9.66 15 0 15z" fill="#231815" p-id="5503"></path><path d="M370.172172 382.283243m-172.37142 172.37142a243.77 243.77 0 1 0 344.74284-344.74284 243.77 243.77 0 1 0-344.74284 344.74284Z" fill="#F0B9A0" p-id="5504"></path><path d="M370.17 235.07m-29.691414 29.691414a41.99 41.99 0 1 0 59.382828-59.382828 41.99 41.99 0 1 0-59.382828 59.382828Z" fill="#68BCAC" p-id="5505"></path><path d="M245.715987 458.77893m-9.645524 40.86715a41.99 41.99 0 1 0 19.291048-81.7343 41.99 41.99 0 1 0-19.291048 81.7343Z" fill="#68BCAC" p-id="5506"></path><path d="M245.738622 308.179889m-6.727879 41.447506a41.99 41.99 0 1 0 13.455759-82.895012 41.99 41.99 0 1 0-13.455759 82.895012Z" fill="#68BCAC" p-id="5507"></path><path d="M370.174757 519.495485m-29.691413 29.691414a41.99 41.99 0 1 0 59.382827-59.382827 41.99 41.99 0 1 0-59.382827 59.382827Z" fill="#68BCAC" p-id="5508"></path><path d="M418.86 427.3a71.08 71.08 0 0 1-48.71 20.18c-18.67 0-35.24-7.81-48.72-20.18s-19.38-30.9-20.18-48.72c-0.77-17.16 8.23-36.76 20.18-48.71a71 71 0 0 1 48.72-20.18c18.66 0 35.23 7.8 48.71 20.18s19.38 30.9 20.18 48.71c0.77 17.17-8.23 36.77-20.18 48.72z" fill="#68BCAC" p-id="5509"></path><path d="M496.354945 458.762343m-9.645524 40.86715a41.99 41.99 0 1 0 19.291048-81.7343 41.99 41.99 0 1 0-19.291048 81.7343Z" fill="#68BCAC" p-id="5510"></path><path d="M496.40232 308.168235m-6.727879 41.447506a41.99 41.99 0 1 0 13.455759-82.895012 41.99 41.99 0 1 0-13.455759 82.895012Z" fill="#68BCAC" p-id="5511"></path><path d="M370.17 131c-51.76 0.15-103 16.11-145.2 46.22a251.28 251.28 0 1 0 373.89 309.2 254.06 254.06 0 0 0 17.56-154.26A251.44 251.44 0 0 0 544.1 201c-36.76-35.23-84.18-59.06-134.56-66.82a263.42 263.42 0 0 0-39.37-3.18c-9.65 0-9.66 15 0 15a236.27 236.27 0 0 1 150.14 418.77 236.31 236.31 0 0 1-272.4 19.72 238.82 238.82 0 0 1-93.2-105c-20.34-44.63-25.94-95.95-16.19-144A235.73 235.73 0 0 1 370.17 146c9.65 0 9.67-15 0-15z" fill="#231815" p-id="5512"></path><path d="M370.17 200.58c14.29 0.23 27.5 8.95 32.41 22.59a34.5 34.5 0 0 1-50.19 41.47c-12.07-7.24-18.86-21.8-16.19-35.71a35 35 0 0 1 34-28.35c9.65-0.16 9.67-15.16 0-15a50.26 50.26 0 0 0-46.65 33c-7 19.1-0.69 41.67 15 54.52 16 13.12 39.07 15.25 57 4.51a50.15 50.15 0 0 0 23.08-52.65c-4.5-22.93-25.48-39-48.44-39.36-9.67-0.18-9.68 14.82-0.02 14.98zM245.72 493.29c-14.28-0.23-27.5-9-32.4-22.59a34.5 34.5 0 0 1 50.19-41.47c12.06 7.24 18.85 21.8 16.19 35.71a35 35 0 0 1-34 28.35c-9.64 0.16-9.67 15.16 0 15a50.25 50.25 0 0 0 46.65-33c7-19.1 0.69-41.67-15-54.52-16-13.12-39.07-15.25-57-4.5a50.12 50.12 0 0 0-23.08 52.64c4.5 22.93 25.48 39 48.43 39.37 9.68 0.17 9.68-14.83 0.02-14.99zM245.72 342.65c-14.28-0.23-27.5-9-32.4-22.59a34.5 34.5 0 0 1 50.19-41.47c12.06 7.24 18.85 21.8 16.19 35.71a35 35 0 0 1-34 28.35c-9.64 0.16-9.67 15.16 0 15a50.25 50.25 0 0 0 46.65-33c7-19.1 0.69-41.68-15-54.52-16-13.13-39.07-15.25-57-4.51a50.12 50.12 0 0 0-23.08 52.64c4.5 22.93 25.48 39 48.43 39.37 9.68 0.18 9.68-14.82 0.02-14.98zM370.17 554c-14.28-0.24-27.5-9-32.4-22.6a34.53 34.53 0 1 1 32.4 22.6c-9.64 0.15-9.67 15.15 0 15a50.26 50.26 0 0 0 46.65-33c7-19.1 0.69-41.67-15-54.52-16-13.12-39.07-15.25-57-4.51a50.16 50.16 0 0 0-23.09 52.65c4.5 22.93 25.49 39 48.44 39.37 9.66 0.15 9.66-14.85 0-14.99zM413.56 422c-18.7 18.23-47.54 23.38-70.89 11.2-11.24-5.87-21-14.31-26.79-25.69-5.5-10.72-8.33-24.38-6.88-36.4 3.09-25.58 22.83-46.28 47.5-52.27 24.23-5.88 52.55 5.3 65.66 26.79a62.68 62.68 0 0 1-8.6 76.37c-6.74 6.91 3.85 17.53 10.61 10.6 10.72-11 18.66-25.56 21.32-40.75 2.6-14.91 0.11-30.82-5.78-44.68-12.18-28.68-44.83-47.71-75.82-44.67a78 78 0 0 0-67.7 56.74c-4.12 14.82-2.72 31.11 2.34 45.55 5.3 15.09 14.81 26.86 27.83 36 30.2 21.26 71.42 17.51 97.81-8.21 6.92-6.73-3.69-17.33-10.61-10.58zM496.38 493.29c-14.29-0.23-27.51-9-32.41-22.59a34.5 34.5 0 0 1 50.19-41.47c12.06 7.24 18.85 21.8 16.19 35.71a35 35 0 0 1-34 28.35c-9.65 0.16-9.68 15.16 0 15a50.27 50.27 0 0 0 46.65-33c7-19.1 0.68-41.67-15-54.52-16-13.12-39.07-15.25-57-4.5a50.14 50.14 0 0 0-23.08 52.64c4.5 22.93 25.48 39 48.44 39.37 9.64 0.17 9.64-14.83 0.02-14.99zM496.38 342.65c-14.29-0.23-27.51-9-32.41-22.59a34.5 34.5 0 0 1 50.19-41.47c12.06 7.24 18.85 21.8 16.19 35.71a35 35 0 0 1-34 28.35c-9.65 0.16-9.68 15.16 0 15a50.27 50.27 0 0 0 46.65-33c7-19.1 0.68-41.68-15-54.52-16-13.13-39.07-15.25-57-4.51a50.14 50.14 0 0 0-23.08 52.64c4.5 22.93 25.48 39 48.44 39.37 9.64 0.18 9.64-14.82 0.02-14.98z" fill="#231815" p-id="5513"></path></svg>