<?xml version="1.0" standalone="no"?><!DOCTYPE svg PUBLIC "-//W3C//DTD SVG 1.1//EN" "http://www.w3.org/Graphics/SVG/1.1/DTD/svg11.dtd"><svg t="1683860283896" class="icon" viewBox="0 0 1024 1024" version="1.1" xmlns="http://www.w3.org/2000/svg" p-id="7079" xmlns:xlink="http://www.w3.org/1999/xlink" width="32" height="32"><path d="M451.2 572.7c-114.9 0-205.1-49.2-205.1-111.9s90.3-111.9 205.1-111.9 205.1 49.2 205.1 111.9S566 572.7 451.2 572.7z" fill="#FFF433" p-id="7080"></path><path d="M418.8 428.1c-15.5 0-28-12.5-28-28 0-15.4 12.5-28 28-28s28 12.5 28 28c-0.3 15.4-12.7 27.8-28 28z m0-37.3c-5.2 0-9.3 4.2-9.3 9.3 0 10.4 18.6 10.4 18.6 0 0-2.5-1-4.8-2.7-6.6s-4.2-2.7-6.6-2.7zM241.6 745.1c-15.4 0-28-12.5-28-28 0-15.4 12.5-28 28-28s28 12.5 28 28c-0.2 15.4-12.6 27.8-28 28z m0-37.3c-5.1 0-9.3 4.2-9.3 9.3 0 10.4 18.6 10.4 18.6 0 0-5.1-4.2-9.3-9.3-9.3z m111.9 37.3c-11.3 0-21.5-6.8-25.8-17.3-4.3-10.5-1.9-22.5 6.1-30.5s20-10.4 30.5-6.1c10.5 4.3 17.3 14.5 17.3 25.8-0.3 15.5-12.7 27.9-28.1 28.1z m0-37.3c-5.2 0-9.3 4.2-9.3 9.3 0 10.4 18.6 10.4 18.6 0 0-5.1-4.2-9.3-9.3-9.3z m475.5 28H605.2c-10.3 0-18.6-8.4-18.6-18.7 0-10.3 8.4-18.6 18.6-18.6H829c10.3 0 18.6 8.3 18.6 18.6 0.1 10.3-8.3 18.7-18.6 18.7z m0 0" fill="#76569A" p-id="7081"></path><path d="M829 847.7H195c-30.2 0.1-57.3-18.9-67.5-47.4L71.9 647.8c-4.9-13.6-7.4-28-7.5-42.5 0-14.5 2.6-29 7.8-42.5l129.4-339.4c11.1-27.9 37.9-46.4 67.9-47h484.9c29.9 0.5 56.7 18.9 67.9 46.6l129.4 339.4c5.2 13.7 7.8 28.2 7.8 42.9-0.1 14.5-2.6 28.9-7.5 42.5l-55.6 152.5c-10.2 28.4-37.2 47.3-67.4 47.4zM269.6 213.6c-14.6 0.5-27.5 9.3-33.2 22.7L107 575.8c-3.4 9.5-5.2 19.4-5.2 29.5 0.1 10.2 1.8 20.2 5.2 29.8l55.6 152.5c5 13.6 17.9 22.7 32.4 22.7h634c14.5 0 27.5-9.1 32.5-22.7L917 635.1c3.4-9.6 5.2-19.7 5.2-29.8 0-10.1-1.9-20.1-5.6-29.5l-129-339.4c-5.7-13.4-18.6-22.3-33.2-22.7H269.6z m0 0" fill="#76569A" p-id="7082"></path><path d="M679.8 549.3c-5.7-0.1-11-2.7-14.5-7.1-6.3-8-5-19.7 3-26.1l28-22.4c32.4-25.8 44-69.8 28.3-108.2l-43.3-108.9c-2.8-9.2 1.8-19 10.7-22.7 8.9-3.7 19.1 0 23.6 8.5l43.6 109.3c20.7 53.1 4.5 113.5-39.9 149.2l-28 22.4c-2.9 3.3-7 5.4-11.5 6z m-261-37.3c-114.9 0-205.1-49.2-205.1-111.9 0-62.6 90.3-111.9 205.1-111.9s205.1 49.2 205.1 111.9S533.6 512 418.8 512z m0-186.5c-98.8 0-167.8 39.2-167.8 74.6 0 35.4 69 74.6 167.8 74.6 98.8 0 167.8-37.3 167.8-74.6s-69-74.6-167.8-74.6z m522.1 298.4H83.1c-10.3 0-18.6-8.4-18.6-18.6 0-10.3 8.4-18.6 18.6-18.6h857.8c10.3 0 18.6 8.4 18.6 18.6 0.1 10.2-8.3 18.6-18.6 18.6z m0 0" fill="#76569A" p-id="7083"></path></svg>